<svg xmlns="http://www.w3.org/2000/svg" version="1.1" baseProfile="full" width="990" height="640" style="user-select: none; position: absolute; left: 0px; top: 0px;"><g><rect width="990" height="640" x="0" y="0" id="0" style="fill: transparent;"></rect></g><g><path d="M 645.8834 165.7732 L 647.1081 168.766 L 646.582 171.4333 L 645.4909 172.4061 L 644.1802 171.4333 L 642.3821 170.901 L 642.5977 175.297 L 640.9075 175.7264 L 640.541 177.7073 L 643.956 178.8409 L 642.5417 179.9403 L 639.8424 180.6158 L 639.6398 183.3244 L 638.1909 184.5673 L 637.4882 186.0506 L 635.5003 187.1734 L 634.7456 189.3501 L 631.8351 189.9457 L 629.7828 189.8826 L 628.3339 188.8345 L 624.4918 190.2149 L 621.3054 189.6535 L 616.6917 190.3238 L 605.2132 191.04 L 605.1745 190.3639 L 602.7554 190.4555 L 602.6002 186.6347 L 599.7759 186.5889 L 599.7543 184.2065 L 598.1718 185.2431 L 595.3821 189.6192 L 592.0274 190.9138 L 592.4845 193.4634 L 590.1085 193.5893 L 590.1904 196.5863 L 588.7115 196.8555 L 588.897 199.807 L 589.4101 201.5264 L 587.8965 202.0769 L 581.4934 205.4244 L 563.5212 210.7682 L 564.2888 213.1538 L 558.9031 214.9661 L 558.9978 215.3846 L 556.9885 216.0787 L 555.4836 211.5481 L 552.7156 211.8461 L 552.681 208.6524 L 551.4262 204.5532 L 550.538 204.49 L 549.0675 195.5318 L 548.1449 195.6292 L 547.4463 194.4491 L 545.907 190.278 L 544.3935 188.2558 L 542.7203 184.4584 L 541.25 181.9786 L 539.8487 180.8276 L 539.5123 177.9707 L 540.9309 178.7836 L 546.6573 177.7701 L 553.2717 177.9306 L 555.5528 176.9914 L 557.4112 176.6194 L 558.9548 175.2627 L 559.8517 175.503 L 560.8908 174.7132 L 564.9398 175.4287 L 566.4447 174.942 L 565.0304 173.0931 L 563.8403 172.4577 L 563.159 171.124 L 561.3782 169.5216 L 562.3484 168.9435 L 563.7584 169.4014 L 565.4012 169.2812 L 566.8025 170.0823 L 567.9796 169.6132 L 568.5703 167.1581 L 567.1346 163.6734 L 567.1993 162.4603 L 566.1212 161.5909 L 565.2373 161.7566 L 564.8622 160.4009 L 566.2678 160.0804 L 570.1658 157.6666 L 571.0454 156.4426 L 570.8212 154.2922 L 572.8521 152.3648 L 574.1155 153.3312 L 574.2837 151.8444 L 576.0042 150.8726 L 575.7757 149.9062 L 578.6475 148.2652 L 579.6434 146.6644 L 581.0363 146.1498 L 583.3819 144.1833 L 586.0208 143.6059 L 586.0208 140.6909 L 586.4347 138.9135 L 588.2501 137.9878 L 588.6425 134.1936 L 588.2847 132.4453 L 588.8754 132.2056 L 589.6687 130.3488 L 589.3798 129.2635 L 588.1078 128.8181 L 587.3964 127.6927 L 589.8843 126.5731 L 590.6216 127.4643 L 592.299 127.2358 L 592.6311 125.8765 L 592.4112 124.0946 L 594.6015 123.5806 L 596.1754 122.4441 L 597.0379 120.6683 L 597.3958 118.4246 L 598.5599 117.7793 L 599.9398 115.1591 L 602.225 116.1124 L 605.4461 116.198 L 606.274 114.9137 L 606.5112 113.1955 L 607.3994 114.36 L 611.5863 115.5587 L 613.3284 116.3409 L 614.803 115.8327 L 616.101 116.8661 L 614.2813 116.7347 L 613.8415 117.2028 L 615.9068 117.7966 L 614.3589 118.2875 L 613.8155 119.4638 L 614.6478 120.9025 L 616.834 122.6841 L 617.5323 124.1632 L 618.5501 124.4714 L 619.2271 125.7336 L 620.8096 125.4539 L 622.2109 127.6469 L 624.7893 128.0013 L 627.1351 129.9034 L 627.9587 129.7947 L 629.7871 131.2456 L 629.7051 133.1538 L 632.1026 135.2337 L 633.0425 134.0907 L 635.2071 134.3993 L 637.5786 135.4622 L 638.053 137.0964 L 639.2474 137.3649 L 640.8429 139.588 L 643.8697 140.7025 L 644.4604 141.7711 L 644.4691 145.4868 L 642.7746 145.7784 L 641.8388 147.2876 L 641.9983 148.471 L 640.0796 151.244 L 640.3944 155.3044 L 641.8863 156.0478 L 644.2148 159.4511 L 643.5808 161.0587 L 645.3186 163.6734 L 645.8834 165.7732 Z" fill="#FFF" fill-opacity="1" stroke="#666" stroke-width="1" paint-order="fill" stroke-opacity="1" stroke-dasharray="" stroke-linecap="butt" stroke-linejoin="miter" stroke-miterlimit="10" transform="matrix(1,0,0,1,0,0)" clip-path="none"></path><path d="M 539.5123 177.9707 L 539.8487 180.8276 L 541.25 181.9786 L 542.7203 184.4584 L 544.3935 188.2558 L 545.907 190.278 L 547.4463 194.4491 L 548.1449 195.6292 L 549.0675 195.5318 L 550.538 204.49 L 551.4262 204.5532 L 552.681 208.6524 L 552.7156 211.8461 L 555.4836 211.5481 L 556.9885 216.0787 L 557.7087 218.0288 L 555.1087 219.0843 L 553.7547 218.5623 L 553.3536 217.2716 L 552.2585 217.1915 L 550.3998 219.6925 L 550.3438 220.88 L 545.0402 221.8954 L 544.2985 221.7923 L 541.1078 222.8708 L 533.8032 223.4617 L 535.7005 221.5055 L 536.1576 220.1972 L 534.5191 218.0862 L 532.5441 217.2085 L 531.4877 218.7059 L 529.3534 220.1859 L 527.7492 219.6524 L 526.4731 216.9679 L 524.4852 216.0213 L 523.1139 212.9702 L 520.6174 210.2405 L 519.0522 204.5817 L 516.1027 202.4607 L 515.1239 202.9077 L 513.2268 201.8817 L 510.5662 201.1252 L 508.0051 202.0881 L 506.1767 201.3716 L 505.7369 200.105 L 503.4991 198.1795 L 503.085 194.5865 L 502.1064 193.1654 L 502.5505 192.0484 L 501.9425 190.8679 L 502.0328 187.3394 L 502.6065 186.5431 L 502.6971 183.4449 L 502.6538 182.2823 L 504.3657 178.921 L 503.8785 176.4877 L 505.6033 176.3102 L 506.9657 177.7874 L 509.6996 177.9191 L 510.976 178.7836 L 512.2823 178.6118 L 513.7699 179.4363 L 514.3652 181.1769 L 518.7287 182.9178 L 521.7212 182.6028 L 523.8341 182.7918 L 525.451 181.1314 L 524.9769 178.9037 L 525.7012 177.7643 L 525.7788 176.1727 L 527.0852 174.9535 L 529.0861 173.7858 L 531.0652 173.757 L 532.2769 172.6925 L 534.1396 172.1029 L 535.3254 174.3408 L 536.731 175.8866 L 539.5123 177.9707 Z" fill="#FFF" fill-opacity="1" stroke="#666" stroke-width="1" paint-order="fill" stroke-opacity="1" stroke-dasharray="" stroke-linecap="butt" stroke-linejoin="miter" stroke-miterlimit="10" transform="matrix(1,0,0,1,0,0)" clip-path="none"></path><path d="M 557.7087 218.0288 L 558.7909 220.9143 L 558.584 222.7904 L 559.4249 225.3554 L 561.3696 224.6553 L 560.6409 225.6079 L 561.2963 226.3997 L 560.2828 226.8759 L 561.5895 228.5232 L 563.228 229.5217 L 562.3698 229.8088 L 562.4863 231.0427 L 561.4515 231.341 L 562.6156 234.768 L 563.4005 233.9702 L 564.6336 234.4752 L 566.5353 236.1459 L 566.7682 237.1277 L 570.0279 239.9757 L 570.8082 239.9526 L 573.7923 238.5055 L 574.1758 237.7189 L 575.185 238.6491 L 573.874 239.2922 L 573.7836 242.6285 L 572.9298 243.2431 L 572.9125 244.6328 L 573.8826 246.2699 L 574.6115 249.5613 L 572.4597 252.6063 L 572.6193 257.1975 L 571.9596 259.0249 L 569.851 262.1173 L 567.9839 262.7553 L 569.2303 265.6584 L 569.7907 267.6877 L 571.7527 272.7309 L 570.5799 271.0746 L 568.8638 271.2931 L 568.467 272.1096 L 566.0135 271.8968 L 565.5218 270.2351 L 563.7884 269.9819 L 563.5039 268.7169 L 561.3049 269.3321 L 560.7959 270.4075 L 559.0884 270.6952 L 557.2343 268.74 L 551.383 269.8554 L 551.4563 271.0285 L 550.6113 271.3736 L 550.4734 273.5301 L 548.2698 272.1384 L 543.9493 273.2484 L 542.2029 269.4129 L 539.2061 269.2232 L 539.1544 268.027 L 537.7574 268.6365 L 537.6065 266.8485 L 538.5938 265.5376 L 539.8744 264.8131 L 541.4483 265.2444 L 544.0743 263.399 L 544.3375 261.0884 L 542.9102 258.1972 L 543.5223 257.4849 L 541.9097 255.5078 L 544.3805 252.4509 L 544.4021 251.0032 L 545.8984 250.6357 L 546.4158 248.9583 L 547.1961 248.4238 L 546.8685 246.3676 L 544.2512 247.5679 L 543.9837 246.1032 L 545.8897 244.1906 L 545.5965 243.5302 L 543.9751 244.3803 L 543.8674 243.5648 L 541.7934 244.6559 L 541.9487 246.7351 L 539.1761 247.2635 L 539.7149 249.5097 L 537.3477 250.5207 L 534.9589 250.7161 L 533.8981 252.3651 L 534.5708 256.025 L 531.0352 256.663 L 530.7936 255.5713 L 529.8535 255.801 L 529.2758 253.8817 L 526.8353 255.4274 L 525.6753 255.4159 L 524.4119 256.6399 L 522.5318 255.1403 L 521.9111 252.9396 L 520.5009 253.0543 L 520.3329 252.043 L 518.4702 251.7043 L 517.6033 249.4463 L 518.3279 247.2981 L 520.4925 247.7691 L 522.6224 246.4307 L 522.5232 244.8282 L 523.1182 245.4486 L 524.5284 244.024 L 525.602 243.9666 L 527.1585 244.8455 L 528.4695 244.627 L 528.2539 243.5013 L 529.1852 240.9001 L 528.4478 239.1602 L 530.0304 235.7556 L 529.5776 234.3778 L 530.5867 234.8828 L 532.1173 234.2627 L 532.3113 233.5626 L 534.3509 233.9759 L 535.6359 233.2755 L 537.1148 227.6164 L 535.1528 224.3339 L 533.5359 224.3454 L 533.8032 223.4617 L 541.1078 222.8708 L 544.2985 221.7923 L 545.0402 221.8954 L 550.3438 220.88 L 550.3998 219.6925 L 552.2585 217.1915 L 553.3536 217.2716 L 553.7547 218.5623 L 555.1087 219.0843 L 557.7087 218.0288 Z" fill="#FFF" fill-opacity="1" stroke="#666" stroke-width="1" paint-order="fill" stroke-opacity="1" stroke-dasharray="" stroke-linecap="butt" stroke-linejoin="miter" stroke-miterlimit="10" transform="matrix(1,0,0,1,0,0)" clip-path="none"></path><path d="M 556.9885 216.0787 L 558.9978 215.3846 L 558.9031 214.9661 L 564.2888 213.1538 L 563.5212 210.7682 L 581.4934 205.4244 L 587.8965 202.0769 L 589.4101 201.5264 L 588.897 199.807 L 588.7115 196.8555 L 590.1904 196.5863 L 590.1085 193.5893 L 592.4845 193.4634 L 592.0274 190.9138 L 595.3821 189.6192 L 598.1718 185.2431 L 599.7543 184.2065 L 599.7759 186.5889 L 602.6002 186.6347 L 602.7554 190.4555 L 605.1745 190.3639 L 605.2132 191.04 L 616.6917 190.3238 L 621.3054 189.6535 L 624.4918 190.2149 L 628.3339 188.8345 L 629.7828 189.8826 L 631.8351 189.9457 L 634.7456 189.3501 L 635.5003 187.1734 L 637.4882 186.0506 L 638.1909 184.5673 L 639.6398 183.3244 L 639.8424 180.6158 L 642.5417 179.9403 L 643.956 178.8409 L 640.541 177.7073 L 640.9075 175.7264 L 642.5977 175.297 L 642.3821 170.901 L 644.1802 171.4333 L 645.4909 172.4061 L 646.582 171.4333 L 647.1081 168.766 L 645.8834 165.7732 L 647.2373 166.4884 L 648.9234 166.6085 L 653.0498 168.4456 L 653.6018 169.7045 L 656.1845 171.4791 L 658.4873 172.515 L 664.9594 168.5773 L 665.8003 168.2738 L 667.732 170.2941 L 668.1331 172.8813 L 667.775 173.7685 L 669.2542 173.9919 L 670.6728 175.2685 L 670.1811 175.6632 L 670.3837 178.6234 L 670.0648 182.746 L 672.2594 185.3005 L 671.4058 187.5227 L 673.3892 187.5342 L 675.2003 186.9843 L 675.5451 189.0235 L 673.1953 191.9795 L 672.9581 194.1911 L 674.1181 194.4833 L 675.9765 196.4431 L 676.5886 198.1737 L 679.8615 203.1199 L 680.8101 203.8021 L 681.0689 207.2361 L 680.1374 207.5399 L 678.5982 209.5756 L 680.0512 211.0777 L 680.1158 213.8075 L 678.5809 214.4669 L 678.6109 216.2565 L 676.4379 218.9526 L 673.4798 221.5628 L 673.6737 222.1479 L 672.1777 226.4455 L 672.7598 227.7311 L 672.3414 231.1059 L 671.8543 232.0415 L 670.4054 232.294 L 667.3785 235.2388 L 660.4966 236.9495 L 659.0434 237.9086 L 658.0475 239.4761 L 659.5005 240.2685 L 661.0184 242.1578 L 661.0744 245.9139 L 664.7825 246.7524 L 664.7525 248.1713 L 667.0593 252.8015 L 664.7309 255.4963 L 663.101 255.7206 L 662.411 257.1398 L 662.7042 260.0422 L 663.6314 262.1343 L 663.4502 265.2271 L 660.9665 263.5657 L 658.8795 264.2209 L 656.5597 262.6691 L 654.9687 262.6114 L 653.9467 263.5198 L 651.3553 264.1924 L 649.221 265.3825 L 646.6079 266.2679 L 642.546 265.6642 L 637.3673 265.3075 L 637.3157 263.8935 L 634.2066 263.0828 L 633.2537 263.8589 L 632.0593 262.232 L 631.1238 258.4273 L 630.4208 256.7722 L 629.0022 255.9103 L 627.1524 256.5422 L 624.4791 256.4618 L 624.1943 255.3012 L 622.8706 254.916 L 620.5034 256.9674 L 620.4688 259.6571 L 621.7841 263.2725 L 621.1242 266.2044 L 620.2835 267.1244 L 618.6621 266.0609 L 615.6396 265.3937 L 614.9323 265.5837 L 611.6336 264.4337 L 610.3056 264.8993 L 608.0375 263.3933 L 606.882 264.6064 L 605.3124 264.8823 L 603.661 266.8139 L 601.1859 267.6934 L 595.0456 271.8395 L 593.4158 272.6848 L 593.2692 274.508 L 595.3821 279.4317 L 595.0243 280.4443 L 593.5494 280.9506 L 591.4151 280.8698 L 591.7427 279.7022 L 589.8585 279.8746 L 587.1376 275.9804 L 585.042 273.9213 L 582.4247 273.8178 L 580.0359 274.5311 L 577.4055 274.6057 L 576.3794 274.1283 L 573.9259 274.393 L 571.7527 272.7309 L 569.7907 267.6877 L 569.2303 265.6584 L 567.9839 262.7553 L 569.851 262.1173 L 571.9596 259.0249 L 572.6193 257.1975 L 572.4597 252.6063 L 574.6115 249.5613 L 573.8826 246.2699 L 572.9125 244.6328 L 572.9298 243.2431 L 573.7836 242.6285 L 573.874 239.2922 L 575.185 238.6491 L 574.1758 237.7189 L 573.7923 238.5055 L 570.8082 239.9526 L 570.0279 239.9757 L 566.7682 237.1277 L 566.5353 236.1459 L 564.6336 234.4752 L 563.4005 233.9702 L 562.6156 234.768 L 561.4515 231.341 L 562.4863 231.0427 L 562.3698 229.8088 L 563.228 229.5217 L 561.5895 228.5232 L 560.2828 226.8759 L 561.2963 226.3997 L 560.6409 225.6079 L 561.3696 224.6553 L 559.4249 225.3554 L 558.584 222.7904 L 558.7909 220.9143 L 557.7087 218.0288 L 556.9885 216.0787 Z" fill="#FFF" fill-opacity="1" stroke="#666" stroke-width="1" paint-order="fill" stroke-opacity="1" stroke-dasharray="" stroke-linecap="butt" stroke-linejoin="miter" stroke-miterlimit="10" transform="matrix(1,0,0,1,0,0)" clip-path="none"></path><path d="M 414.919 339.8862 L 412.9743 339.8919 L 412.5732 338.7381 L 407.2955 338.9284 L 407.4161 340.3245 L 403.8286 340.7805 L 402.285 338.7092 L 402.272 337.6018 L 403.8459 336.1365 L 404.3504 334.7407 L 400.2843 329.2393 L 397.2399 330.0349 L 395.0021 331.2 L 393.4972 329.8737 L 391.5784 325.1919 L 387.1933 325.2842 L 386.5334 322.6958 L 387.137 322.4881 L 385.6538 317.376 L 383.2953 317.3356 L 381.4282 316.5403 L 379.5482 319.7677 L 373.313 321.9809 L 371.3986 321.3183 L 369.0055 317.6929 L 368.7296 316.4538 L 368.695 312.3683 L 365.97 311.8326 L 365.9267 311.1414 L 363.6802 311.1414 L 357.6738 304.8626 L 360.3255 303.6761 L 359.8771 297.0022 L 365.7758 295.7124 L 365.0601 291.5388 L 366.8926 291.0899 L 366.5434 288.4883 L 362.6713 288.8338 L 361.3173 284.2417 L 360.6101 285.5074 L 354.7416 288.3102 L 347.7908 280.1796 L 349.1791 279.2648 L 347.3811 275.0486 L 347.2518 271.5575 L 346.6051 268.7803 L 345.5356 261.347 L 344.5265 255.6802 L 346.0143 254.7036 L 346.3549 253.2036 L 348.2003 253.4507 L 348.9592 251.3996 L 349.0628 249.3489 L 346.9759 247.1773 L 345.5659 244.6559 L 345.9324 241.7041 L 345.5743 240.2628 L 346.5791 237.7246 L 345.0096 235.0036 L 346.6221 232.9541 L 345.4796 230.9392 L 345.402 228.6722 L 344.8973 226.3077 L 342.8837 224.7527 L 343.0735 223.3816 L 343.9014 222.7792 L 345.9108 222.9109 L 348.5625 222.1021 L 349.9854 220.375 L 350.8133 220.599 L 354.5001 216.6292 L 353.5859 214.771 L 353.8577 213.1708 L 355.7332 212.4482 L 356.4361 212.8266 L 359.1828 212.494 L 361.7098 210.5215 L 363.6026 209.994 L 366.4874 211.3472 L 367.9533 210.7278 L 369.29 212.0009 L 372.0583 211.112 L 372.8086 209.4093 L 376.5816 209.0536 L 378.7762 210.5388 L 380.3631 210.1088 L 382.0792 210.2808 L 383.1141 211.0777 L 385.4038 211.2783 L 385.7917 210.0799 L 386.9818 209.6441 L 388.3187 210.2004 L 390.5263 209.4778 L 394.1915 210.0799 L 395.7697 210.0056 L 398.0981 209.0936 L 399.8056 209.4205 L 401.3535 207.6203 L 401.69 206.5023 L 401.1036 201.5953 L 402.6126 199.6637 L 404.3547 199.6522 L 408.1967 198.4887 L 408.9513 197.165 L 410.206 197.4803 L 411.1459 196.6437 L 413.4787 196.7869 L 414.3067 196.1621 L 414.5696 193.6066 L 415.6866 192.0253 L 414.0264 187.6543 L 415.5787 186.7036 L 416.0358 185.0826 L 417.5017 183.8342 L 418.6918 184.5901 L 419.5973 184.2466 L 421.2058 184.659 L 422.6545 185.7013 L 423.9955 185.9074 L 428.8896 185.0598 L 430.9982 185.22 L 431.9424 186.3255 L 433.6802 186.7036 L 434.7367 185.9189 L 436.7027 185.9131 L 436.7287 184.6132 L 438.2422 182.4942 L 438.156 181.4175 L 439.4753 179.4937 L 438.9106 178.7836 L 440.0144 178.3427 L 441.6875 179.0755 L 443.2784 182.6887 L 444.5678 182.7518 L 446.2582 184.3667 L 447.5302 184.9797 L 450.0094 187.0817 L 452.4371 187.5169 L 453.3297 187.1676 L 456.1842 188.4506 L 459.1207 188.1699 L 461.0868 186.0048 L 462.9582 184.4526 L 463.9843 184.865 L 465.5065 184.4299 L 466.2008 185.9189 L 467.1883 185.369 L 467.3606 186.3028 L 468.9131 187.4768 L 470.448 186.8353 L 470.7456 187.7633 L 473.7208 187.0587 L 474.7686 187.9523 L 476.4157 190.5071 L 479.309 191.2633 L 480.2018 190.6846 L 482.9914 191.0801 L 487.3982 190.0431 L 488.9894 190.0717 L 491.2229 187.1961 L 492.7752 187.282 L 492.3743 186.2111 L 493.6677 185.7641 L 495.5953 186.7552 L 497.9195 186.1422 L 498.9413 185.0198 L 499.726 182.2936 L 501.8778 182.2365 L 502.6971 183.4449 L 502.6065 186.5431 L 502.0328 187.3394 L 501.9425 190.8679 L 502.5505 192.0484 L 502.1064 193.1654 L 503.085 194.5865 L 503.4991 198.1795 L 505.7369 200.105 L 506.1767 201.3716 L 508.0051 202.0881 L 510.5662 201.1252 L 513.2268 201.8817 L 515.1239 202.9077 L 516.1027 202.4607 L 519.0522 204.5817 L 520.6174 210.2405 L 523.1139 212.9702 L 524.4852 216.0213 L 526.4731 216.9679 L 527.7492 219.6524 L 529.3534 220.1859 L 531.4877 218.7059 L 532.5441 217.2085 L 534.5191 218.0862 L 536.1576 220.1972 L 535.7005 221.5055 L 533.8032 223.4617 L 533.5359 224.3454 L 535.1528 224.3339 L 537.1148 227.6164 L 535.6359 233.2755 L 534.3509 233.9759 L 532.3113 233.5626 L 532.1173 234.2627 L 530.5867 234.8828 L 529.5776 234.3778 L 530.0304 235.7556 L 528.4478 239.1602 L 529.1852 240.9001 L 528.2539 243.5013 L 528.4695 244.627 L 527.1585 244.8455 L 525.602 243.9666 L 524.5284 244.024 L 523.1182 245.4486 L 522.5232 244.8282 L 522.6224 246.4307 L 520.4925 247.7691 L 518.3279 247.2981 L 517.6033 249.4463 L 518.4702 251.7043 L 520.3329 252.043 L 520.5009 253.0543 L 521.9111 252.9396 L 522.5318 255.1403 L 524.4119 256.6399 L 525.6753 255.4159 L 526.8353 255.4274 L 529.2758 253.8817 L 529.8535 255.801 L 530.7936 255.5713 L 531.0352 256.663 L 534.5708 256.025 L 533.8981 252.3651 L 534.9589 250.7161 L 537.3477 250.5207 L 539.7149 249.5097 L 539.1761 247.2635 L 541.9487 246.7351 L 541.7934 244.6559 L 543.8674 243.5648 L 543.9751 244.3803 L 545.5965 243.5302 L 545.8897 244.1906 L 543.9837 246.1032 L 544.2512 247.5679 L 546.8685 246.3676 L 547.1961 248.4238 L 546.4158 248.9583 L 545.8984 250.6357 L 544.4021 251.0032 L 544.3805 252.4509 L 541.9097 255.5078 L 543.5223 257.4849 L 542.9102 258.1972 L 544.3375 261.0884 L 544.0743 263.399 L 541.4483 265.2444 L 539.8744 264.8131 L 538.5938 265.5376 L 537.6065 266.8485 L 537.7574 268.6365 L 539.1544 268.027 L 539.2061 269.2232 L 542.2029 269.4129 L 543.9493 273.2484 L 548.2698 272.1384 L 550.4734 273.5301 L 550.6113 271.3736 L 551.4563 271.0285 L 551.383 269.8554 L 557.2343 268.74 L 559.0884 270.6952 L 560.7959 270.4075 L 561.3049 269.3321 L 563.5039 268.7169 L 563.7884 269.9819 L 565.5218 270.2351 L 566.0135 271.8968 L 568.467 272.1096 L 568.8638 271.2931 L 570.5799 271.0746 L 571.7527 272.7309 L 573.9259 274.393 L 576.3794 274.1283 L 577.4055 274.6057 L 580.0359 274.5311 L 582.4247 273.8178 L 585.042 273.9213 L 587.1376 275.9804 L 589.8585 279.8746 L 589.134 280.7205 L 589.729 281.3649 L 588.884 282.7687 L 586.4866 282.7687 L 586.1028 287.3662 L 585.098 293.3464 L 584.0632 293.4383 L 584.1841 298.1996 L 584.6409 298.9078 L 583.9469 300.2609 L 584.322 303.5838 L 586.3227 303.9238 L 586.3873 306.2276 L 589.0693 307.0973 L 589.8239 306.9765 L 590.4492 309.9776 L 589.4101 310.6057 L 588.8278 311.9941 L 586.2924 314.0625 L 583.5847 315.6989 L 581.2776 315.8085 L 578.7078 316.9726 L 575.4608 316.4134 L 574.0552 315.5031 L 572.365 315.4339 L 570.8601 316.5346 L 569.1353 315.6527 L 568.2815 315.8142 L 565.785 314.2124 L 564.4094 313.9183 L 561.3049 312.063 L 559.3773 312.1207 L 559.2007 311.176 L 558.1053 310.9857 L 558.0236 310.0238 L 553.871 309.5684 L 552.1162 308.065 L 548.7442 308.4912 L 547.36 307.8923 L 547.2651 306.5038 L 546.5924 306.2565 L 546.2173 307.7308 L 544.1563 307.7711 L 544.1606 305.7207 L 541.4053 306.1988 L 540.0987 306.0088 L 538.2962 303.388 L 537.2227 300.5202 L 534.5364 301.5913 L 534.8253 302.6337 L 529.9914 303.4457 L 529.2414 302.8699 L 529.6122 301.8333 L 530.8583 300.7678 L 528.4738 299.9616 L 527.2018 300.6871 L 523.7866 299.5412 L 523.6573 300.8598 L 522.4412 300.9175 L 522.5664 298.4646 L 524.1877 298.0557 L 524.248 297.0252 L 523.4201 296.5356 L 520.4925 297.4165 L 521.1908 299.3166 L 519.7506 298.8043 L 520.031 301.0614 L 517.0643 306.2449 L 514.0675 306.6538 L 512.3472 306.3657 L 511.2648 302.3341 L 509.7859 302.6683 L 509.6823 301.8333 L 505.7326 302.7199 L 506.2587 301.7352 L 505.9655 298.522 L 506.6338 298.5107 L 506.5259 296.3055 L 508.6778 296.0867 L 508.6691 293.9738 L 510.5965 293.3118 L 509.1822 292.7305 L 511.3855 292.057 L 510.4369 290.0482 L 509.6133 290.1921 L 509.7469 288.4826 L 508.6518 285.4843 L 507.0866 285.5189 L 505.7713 287.2454 L 504.6288 287.5678 L 505.2625 288.4137 L 503.568 289.6281 L 501.3085 290.3994 L 500.4979 289.7893 L 496.4233 290.2094 L 496.5179 291.2569 L 495.3322 291.4642 L 494.9097 292.7536 L 493.3531 292.4886 L 491.8266 293.5941 L 492.0422 294.4804 L 490.7142 294.9296 L 489.9898 293.686 L 489.9682 295.6089 L 489.4895 296.1501 L 489.0067 294.3538 L 488.3511 294.7454 L 487.5708 293.6111 L 486.3247 294.1119 L 485.695 293.0702 L 485.1733 294.6935 L 483.815 295.085 L 482.8794 296.0175 L 481.1027 295.2289 L 480.482 293.9049 L 479.8307 294.2561 L 479.1926 292.9663 L 477.8257 292.8686 L 477.6921 292.0858 L 476.4633 293.9164 L 473.5785 294.2731 L 473.4578 293.2602 L 472.0909 292.8571 L 470.2584 293.0413 L 469.1114 295.9601 L 468.512 296.5875 L 466.8778 295.4131 L 465.6101 296.4263 L 465.0624 295.8332 L 463.0271 296.5298 L 461.7551 295.9774 L 462.4624 298.0673 L 462.4581 299.5124 L 463.3203 300.2955 L 462.471 302.7257 L 463.7387 302.5645 L 463.0574 303.8142 L 459.9916 305.3807 L 456.6067 306.2619 L 456.2575 305.0123 L 453.6488 305.83 L 451.8204 306.0258 L 452.1696 306.9592 L 450.721 307.9785 L 450.8978 309.4246 L 449.393 309.9084 L 450.8762 310.1965 L 449.9447 311.1587 L 450.3759 312.5645 L 449.1341 312.0229 L 447.6249 312.5298 L 447.8491 310.9684 L 446.3099 310.7726 L 445.2491 309.9372 L 444.9516 308.14 L 444.1323 307.0281 L 441.5279 307.3219 L 440.4585 306.89 L 439.7082 305.7611 L 436.25 305.6573 L 434.077 306.8381 L 434.4908 309.5338 L 433.2015 310.7149 L 433.3524 311.7291 L 432.4125 312.2533 L 432.8653 315.8258 L 430.8386 316.6326 L 430.7911 315.6989 L 429.2174 315.8373 L 429.0579 314.8347 L 425.3495 315.4743 L 424.7847 315.9123 L 425.5564 319.1913 L 424.5992 319.4393 L 423.6893 321.1164 L 421.693 328.7836 L 422.357 332.7396 L 423.2108 334.5965 L 421.1626 336.5752 L 419.9725 335.3002 L 417.9288 337.7345 L 414.919 339.8862 Z" fill="#FFF" fill-opacity="1" stroke="#666" stroke-width="1" paint-order="fill" stroke-opacity="1" stroke-dasharray="" stroke-linecap="butt" stroke-linejoin="miter" stroke-miterlimit="10" transform="matrix(1,0,0,1,0,0)" clip-path="none"></path><path d="M 517.0643 306.2449 L 519.449 310.8764 L 518.3149 315.3416 L 516.3873 317.5487 L 518.1207 320.0039 L 516.3959 322.1424 L 515.9864 325.2208 L 515.0636 325.0939 L 515.1499 328.2822 L 514.6668 330.7962 L 515.8182 331.9206 L 515.568 337.5961 L 511.4631 341.8305 L 508.6518 343.0421 L 508.7078 346.7639 L 509.1822 350.163 L 508.9407 351.9757 L 506.2543 355.6933 L 499.7003 358.2163 L 499.6527 365.0883 L 504.0854 365.7583 L 504.7408 367 L 506.5562 366.2838 L 507.5694 366.6651 L 509.2512 365.8275 L 510.7431 366.278 L 514.266 366.6305 L 515.6413 366.2838 L 516.4046 367.7626 L 517.1205 367.7395 L 515.1672 371.4366 L 511.9288 371.4539 L 514.1107 376.5561 L 513.7699 381.3703 L 512.9206 381.3183 L 512.869 384.2259 L 509.7686 387.4055 L 510.0358 390.1289 L 511.1485 391.3491 L 516.4392 393.6042 L 518.9143 393.5232 L 522.8467 395.374 L 523.3597 396.1664 L 523.2821 398.139 L 521.2555 402.3215 L 523.2261 404.9135 L 524.0584 407.1821 L 522.6698 408.2235 L 523.2648 409.85 L 521.467 412.4952 L 523.5623 412.7787 L 526.128 415.2505 L 522.187 417.0046 L 521.4583 418.1046 L 522.062 419.9749 L 517.3964 418.5564 L 514.3393 418.2437 L 510.6914 418.8573 L 509.5617 417.9425 L 506.8797 418.8631 L 503.8439 418.8922 L 503.2446 418.2667 L 501.4378 418.6836 L 498.0099 418.8457 L 496.5826 420.2355 L 496.2807 422.6617 L 495.164 425.1114 L 494.293 430.0813 L 494.4699 431.5469 L 492.6718 432.8508 L 492.4303 434.5077 L 492.1931 440.6215 L 490.8951 440.575 L 488.1874 441.3806 L 483.3882 445.1078 L 482.362 443.6297 L 477.83 439.1494 L 475.851 435.9333 L 474.0659 433.905 L 471.6771 428.6041 L 469.6675 426.8433 L 466.537 425.876 L 461.3973 425.5344 L 452.3939 422.2099 L 448.0863 418.84 L 447.4956 417.8963 L 447.0688 415.1983 L 446.2279 413.508 L 442.5887 409.1034 L 439.2554 406.2792 L 435.9741 403.1316 L 432.1407 400.5108 L 429.2431 398.0464 L 425.1598 395.3451 L 422.9563 394.1942 L 419.9381 393.0723 L 416.6178 392.2107 L 412.7285 391.5859 L 408.0715 391.3837 L 406.0622 389.1458 L 405.8596 388.1166 L 407.2222 385.1564 L 407.8949 383.0407 L 407.6017 381.4513 L 406.929 381.2084 L 405.2732 382.1044 L 403.4535 384.0176 L 403.5784 378.5268 L 402.1255 378.0179 L 403.5441 375.3193 L 407.6187 375.1808 L 407.4637 374.2215 L 409.3911 373.9501 L 414.311 370.8531 L 414.8414 370.235 L 416.8767 370.1655 L 416.8894 369.2702 L 419.1705 369.3336 L 419.5757 370.1655 L 423.0082 370.1655 L 421.3611 367.1445 L 422.5122 365.683 L 421.7319 359.9079 L 425.4228 359.6945 L 424.8277 356.3918 L 426.0007 353.6496 L 420.9946 354.2847 L 419.5413 352.2583 L 416.8161 347.0292 L 417.1525 346.6716 L 415.7166 342.2343 L 415.4321 339.9612 L 414.919 339.8862 L 417.9288 337.7345 L 419.9725 335.3002 L 421.1626 336.5752 L 423.2108 334.5965 L 422.357 332.7396 L 421.693 328.7836 L 423.6893 321.1164 L 424.5992 319.4393 L 425.5564 319.1913 L 424.7847 315.9123 L 425.3495 315.4743 L 429.0579 314.8347 L 429.2174 315.8373 L 430.7911 315.6989 L 430.8386 316.6326 L 432.8653 315.8258 L 432.4125 312.2533 L 433.3524 311.7291 L 433.2015 310.7149 L 434.4908 309.5338 L 434.077 306.8381 L 436.25 305.6573 L 439.7082 305.7611 L 440.4585 306.89 L 441.5279 307.3219 L 444.1323 307.0281 L 444.9516 308.14 L 445.2491 309.9372 L 446.3099 310.7726 L 447.8491 310.9684 L 447.6249 312.5298 L 449.1341 312.0229 L 450.3759 312.5645 L 449.9447 311.1587 L 450.8762 310.1965 L 449.393 309.9084 L 450.8978 309.4246 L 450.721 307.9785 L 452.1696 306.9592 L 451.8204 306.0258 L 453.6488 305.83 L 456.2575 305.0123 L 456.6067 306.2619 L 459.9916 305.3807 L 463.0574 303.8142 L 463.7387 302.5645 L 462.471 302.7257 L 463.3203 300.2955 L 462.4581 299.5124 L 462.4624 298.0673 L 461.7551 295.9774 L 463.0271 296.5298 L 465.0624 295.8332 L 465.6101 296.4263 L 466.8778 295.4131 L 468.512 296.5875 L 469.1114 295.9601 L 470.2584 293.0413 L 472.0909 292.8571 L 473.4578 293.2602 L 473.5785 294.2731 L 476.4633 293.9164 L 477.6921 292.0858 L 477.8257 292.8686 L 479.1926 292.9663 L 479.8307 294.2561 L 480.482 293.9049 L 481.1027 295.2289 L 482.8794 296.0175 L 483.815 295.085 L 485.1733 294.6935 L 485.695 293.0702 L 486.3247 294.1119 L 487.5708 293.6111 L 488.3511 294.7454 L 489.0067 294.3538 L 489.4895 296.1501 L 489.9682 295.6089 L 489.9898 293.686 L 490.7142 294.9296 L 492.0422 294.4804 L 491.8266 293.5941 L 493.3531 292.4886 L 494.9097 292.7536 L 495.3322 291.4642 L 496.5179 291.2569 L 496.4233 290.2094 L 500.4979 289.7893 L 501.3085 290.3994 L 503.568 289.6281 L 505.2625 288.4137 L 504.6288 287.5678 L 505.7713 287.2454 L 507.0866 285.5189 L 508.6518 285.4843 L 509.7469 288.4826 L 509.6133 290.1921 L 510.4369 290.0482 L 511.3855 292.057 L 509.1822 292.7305 L 510.5965 293.3118 L 508.6691 293.9738 L 508.6778 296.0867 L 506.5259 296.3055 L 506.6338 298.5107 L 505.9655 298.522 L 506.2587 301.7352 L 505.7326 302.7199 L 509.6823 301.8333 L 509.7859 302.6683 L 511.2648 302.3341 L 512.3472 306.3657 L 514.0675 306.6538 L 517.0643 306.2449 Z" fill="#FFF" fill-opacity="1" stroke="#666" stroke-width="1" paint-order="fill" stroke-opacity="1" stroke-dasharray="" stroke-linecap="butt" stroke-linejoin="miter" stroke-miterlimit="10" transform="matrix(1,0,0,1,0,0)" clip-path="none"></path><path d="M 646.6079 266.2679 L 647.0391 270.0223 L 649.6045 271.6036 L 653.3819 274.7381 L 656.5383 277.6197 L 657.3446 279.9207 L 658.0043 282.9126 L 659.1167 285.4097 L 659.5695 287.7517 L 659.4012 289.4093 L 656.452 291.8727 L 653.4122 291.9878 L 652.5237 291.5677 L 652.1402 289.4842 L 650.6396 289.0007 L 649.2037 290.0194 L 649.5355 290.9922 L 648.4964 292.437 L 648.2592 294.6473 L 648.643 297.5722 L 651.946 298.885 L 652.1315 300.8483 L 654.5117 302.3514 L 655.5768 302.5241 L 656.4217 303.7049 L 657.0857 306.3311 L 658.3534 308.2377 L 660.9537 308.86 L 663.0707 313.469 L 665.6148 313.9932 L 666.9514 312.651 L 667.9216 312.5529 L 670.6642 313.9644 L 670.6166 315.5839 L 673.2339 317.5949 L 674.4543 319.9004 L 674.5749 321.4564 L 676.1704 323.2953 L 677.3132 323.9813 L 678.0635 325.7107 L 679.9822 327.7115 L 682.0391 328.5648 L 685.4714 330.5079 L 687.7093 330.7616 L 689.753 332.5493 L 689.6926 333.6336 L 688.0844 337.3769 L 688.1577 339.344 L 690.6542 342.4304 L 693.5476 344.3055 L 694.8411 346.5216 L 695.3974 349.0723 L 698.5709 349.4994 L 699.567 350.5613 L 698.8124 352.5008 L 697.1782 353.2859 L 696.8377 354.6599 L 695.7423 355.1389 L 695.8458 356.2877 L 694.8886 358.2163 L 695.0525 359.1805 L 692.8707 360.9531 L 692.5085 362.703 L 694.6731 362.9686 L 697.7259 362.3855 L 698.8124 361.4556 L 700.5804 361.7385 L 701.2055 363.9677 L 699.8085 364.9726 L 699.5369 368.6809 L 699.6879 370.7547 L 701.7575 371.3501 L 703.5513 370.9223 L 703.5729 372.8869 L 704.3489 375.0306 L 705.9745 377.8968 L 704.1807 382.717 L 704.849 383.4338 L 704.7197 386.1392 L 705.2545 386.9255 L 707.9064 387.2495 L 709.0835 388.1454 L 709.7905 390.9963 L 710.0537 393.5985 L 710.5971 394.9462 L 710.3036 396.9011 L 709.463 398.0694 L 708.109 401.8761 L 705.526 404.792 L 707.1991 406.7249 L 707.7898 408.6055 L 706.0651 410.2204 L 704.3102 412.8713 L 702.0808 413.9134 L 701.3781 415.4011 L 699.5153 416.6457 L 698.5149 416.663 L 695.3671 419.4248 L 694.328 419.6853 L 691.6416 422.0247 L 691.8315 423.4378 L 690.8656 426.1076 L 690.0764 426.1887 L 690.6844 428.7432 L 690.167 430.122 L 690.9906 430.8519 L 690.8784 432.5262 L 691.521 433.6387 L 689.3608 435.1047 L 687.0666 439.9781 L 686.1957 440.6157 L 686.144 441.8619 L 683.7639 444.3949 L 683.9105 445.6702 L 681.7716 447.0791 L 679.9002 449.2183 L 679.676 451.6885 L 679.068 452.5004 L 679.5727 454.9652 L 679.4475 456.6122 L 678.0159 457.9404 L 677.5761 460.0405 L 675.7133 459.9245 L 674.7432 462.6798 L 672.3243 464.9661 L 669.9225 467.6295 L 669.6207 469.8347 L 668.2191 471.9415 L 667.8096 475.854 L 666.6583 478.0832 L 664.8602 479.918 L 663.6744 483.4193 L 663.4935 483.0419 L 660.8891 483.1232 L 658.7029 482.6006 L 654.7746 482.409 L 653.0584 484.2499 L 651.92 483.6747 L 651.8383 480.8062 L 649.6261 479.3896 L 646.0646 479.976 L 642.9298 479.0993 L 642.4944 477.2296 L 640.9291 475.6681 L 638.3418 473.8628 L 635.6685 472.6843 L 634.1809 470.1423 L 633.7668 468.6334 L 631.5419 466.5558 L 631.0548 463.9273 L 630.1276 462.8423 L 629.968 461.3456 L 630.6063 458.8453 L 630.4855 457.3546 L 629.7095 455.9742 L 626.8936 453.2426 L 625.4103 450.4302 L 626.9669 448.2733 L 627.8035 447.7456 L 627.7388 446.6558 L 626.747 445.0848 L 624.3798 442.5748 L 619.6842 441.2938 L 618.231 442.5575 L 616.4329 441.5488 L 615.3894 442.4531 L 613.5007 442.9574 L 612.6557 442.2733 L 611.1681 443.1023 L 611.1119 441.9545 L 608.6025 443.1545 L 608.0247 441.4328 L 606.3129 441.1605 L 605.472 441.601 L 603.7213 441.172 L 602.2077 441.7228 L 601.4404 443.7226 L 600.4745 443.705 L 598.8187 445.3456 L 597.3311 446.1979 L 595.714 445.4036 L 593.571 447.7225 L 593.4934 449.0908 L 592.174 447.9834 L 590.7295 449.2068 L 589.5738 448.8995 L 586.0035 450.0533 L 585.2359 450.0245 L 582.8991 447.8036 L 581.8726 447.7225 L 580.6869 446.105 L 579.6348 446.3892 L 575.0038 445.3571 L 572.5719 446.1457 L 571.4852 445.9252 L 570.0623 446.9282 L 568.9844 446.5687 L 567.9409 447.1195 L 564.9744 447.5428 L 563.5341 446.4818 L 561.6757 447.8731 L 559.7481 447.2589 L 559.3816 448.2269 L 556.1822 448.4239 L 552.9268 447.1022 L 554.0176 445.3283 L 556.1649 444.308 L 557.2947 443.3166 L 557.174 440.4475 L 557.5405 439.4856 L 557.1827 437.4166 L 558.3038 435.1623 L 557.9716 433.6153 L 557.1956 432.9898 L 555.2983 432.9203 L 554.6643 434.7858 L 552.4394 434.9076 L 552.4094 436.1996 L 549.1624 435.1857 L 546.2562 435.0351 L 544.5487 434.3802 L 543.932 433.5169 L 540.0943 433.2503 L 537.283 432.283 L 536.1963 432.2772 L 533.6136 430.313 L 533.6869 428.8938 L 532.5271 428.9748 L 533.8637 427.8223 L 533.6482 426.7392 L 534.4328 425.4242 L 533.7904 424.0691 L 532.044 423.3276 L 529.8321 424.4802 L 528.8533 424.0518 L 528.7497 422.3663 L 526.1496 420.5943 L 522.9459 420.9186 L 522.062 419.9749 L 521.4583 418.1046 L 522.187 417.0046 L 526.128 415.2505 L 523.5623 412.7787 L 521.467 412.4952 L 523.2648 409.85 L 522.6698 408.2235 L 524.0584 407.1821 L 523.2261 404.9135 L 521.2555 402.3215 L 523.2821 398.139 L 523.3597 396.1664 L 522.8467 395.374 L 518.9143 393.5232 L 516.4392 393.6042 L 511.1485 391.3491 L 510.0358 390.1289 L 509.7686 387.4055 L 512.869 384.2259 L 512.9206 381.3183 L 513.7699 381.3703 L 514.1107 376.5561 L 511.9288 371.4539 L 515.1672 371.4366 L 517.1205 367.7395 L 516.4046 367.7626 L 515.6413 366.2838 L 514.266 366.6305 L 510.7431 366.278 L 509.2512 365.8275 L 507.5694 366.6651 L 506.5562 366.2838 L 504.7408 367 L 504.0854 365.7583 L 499.6527 365.0883 L 499.7003 358.2163 L 506.2543 355.6933 L 508.9407 351.9757 L 509.1822 350.163 L 508.7078 346.7639 L 508.6518 343.0421 L 511.4631 341.8305 L 515.568 337.5961 L 515.8182 331.9206 L 514.6668 330.7962 L 515.1499 328.2822 L 515.0636 325.0939 L 515.9864 325.2208 L 516.3959 322.1424 L 518.1207 320.0039 L 516.3873 317.5487 L 518.3149 315.3416 L 519.449 310.8764 L 517.0643 306.2449 L 520.031 301.0614 L 519.7506 298.8043 L 521.1908 299.3166 L 520.4925 297.4165 L 523.4201 296.5356 L 524.248 297.0252 L 524.1877 298.0557 L 522.5664 298.4646 L 522.4412 300.9175 L 523.6573 300.8598 L 523.7866 299.5412 L 527.2018 300.6871 L 528.4738 299.9616 L 530.8583 300.7678 L 529.6122 301.8333 L 529.2414 302.8699 L 529.9914 303.4457 L 534.8253 302.6337 L 534.5364 301.5913 L 537.2227 300.5202 L 538.2962 303.388 L 540.0987 306.0088 L 541.4053 306.1988 L 544.1606 305.7207 L 544.1563 307.7711 L 546.2173 307.7308 L 546.5924 306.2565 L 547.2651 306.5038 L 547.36 307.8923 L 548.7442 308.4912 L 552.1162 308.065 L 553.871 309.5684 L 558.0236 310.0238 L 558.1053 310.9857 L 559.2007 311.176 L 559.3773 312.1207 L 561.3049 312.063 L 564.4094 313.9183 L 565.785 314.2124 L 568.2815 315.8142 L 569.1353 315.6527 L 570.8601 316.5346 L 572.365 315.4339 L 574.0552 315.5031 L 575.4608 316.4134 L 578.7078 316.9726 L 581.2776 315.8085 L 583.5847 315.6989 L 586.2924 314.0625 L 588.8278 311.9941 L 589.4101 310.6057 L 590.4492 309.9776 L 589.8239 306.9765 L 589.0693 307.0973 L 586.3873 306.2276 L 586.3227 303.9238 L 584.322 303.5838 L 583.9469 300.2609 L 584.6409 298.9078 L 584.1841 298.1996 L 584.0632 293.4383 L 585.098 293.3464 L 586.1028 287.3662 L 586.4866 282.7687 L 588.884 282.7687 L 589.729 281.3649 L 589.134 280.7205 L 589.8585 279.8746 L 591.7427 279.7022 L 591.4151 280.8698 L 593.5494 280.9506 L 595.0243 280.4443 L 595.3821 279.4317 L 593.2692 274.508 L 593.4158 272.6848 L 595.0456 271.8395 L 601.1859 267.6934 L 603.661 266.8139 L 605.3124 264.8823 L 606.882 264.6064 L 608.0375 263.3933 L 610.3056 264.8993 L 611.6336 264.4337 L 614.9323 265.5837 L 615.6396 265.3937 L 618.6621 266.0609 L 620.2835 267.1244 L 621.1242 266.2044 L 621.7841 263.2725 L 620.4688 259.6571 L 620.5034 256.9674 L 622.8706 254.916 L 624.1943 255.3012 L 624.4791 256.4618 L 627.1524 256.5422 L 629.0022 255.9103 L 630.4208 256.7722 L 631.1238 258.4273 L 632.0593 262.232 L 633.2537 263.8589 L 634.2066 263.0828 L 637.3157 263.8935 L 637.3673 265.3075 L 642.546 265.6642 L 646.6079 266.2679 Z" fill="#FFF" fill-opacity="1" stroke="#666" stroke-width="1" paint-order="fill" stroke-opacity="1" stroke-dasharray="" stroke-linecap="butt" stroke-linejoin="miter" stroke-miterlimit="10" transform="matrix(1,0,0,1,0,0)" clip-path="none"></path><path d="M 483.3882 445.1078 L 488.1874 441.3806 L 490.8951 440.575 L 492.1931 440.6215 L 492.4303 434.5077 L 492.6718 432.8508 L 494.4699 431.5469 L 494.293 430.0813 L 495.164 425.1114 L 496.2807 422.6617 L 496.5826 420.2355 L 498.0099 418.8457 L 501.4378 418.6836 L 503.2446 418.2667 L 503.8439 418.8922 L 506.8797 418.8631 L 509.5617 417.9425 L 510.6914 418.8573 L 514.3393 418.2437 L 517.3964 418.5564 L 522.062 419.9749 L 522.9459 420.9186 L 526.1496 420.5943 L 528.7497 422.3663 L 528.8533 424.0518 L 529.8321 424.4802 L 532.044 423.3276 L 533.7904 424.0691 L 534.4328 425.4242 L 533.6482 426.7392 L 533.8637 427.8223 L 532.5271 428.9748 L 533.6869 428.8938 L 533.6136 430.313 L 536.1963 432.2772 L 537.283 432.283 L 540.0943 433.2503 L 543.932 433.5169 L 544.5487 434.3802 L 546.2562 435.0351 L 549.1624 435.1857 L 552.4094 436.1996 L 552.4394 434.9076 L 554.6643 434.7858 L 555.2983 432.9203 L 557.1956 432.9898 L 557.9716 433.6153 L 558.3038 435.1623 L 557.1827 437.4166 L 557.5405 439.4856 L 557.174 440.4475 L 557.2947 443.3166 L 556.1649 444.308 L 554.0176 445.3283 L 552.9268 447.1022 L 556.1822 448.4239 L 559.3816 448.2269 L 559.7481 447.2589 L 561.6757 447.8731 L 563.5341 446.4818 L 564.9744 447.5428 L 567.9409 447.1195 L 568.9844 446.5687 L 570.0623 446.9282 L 571.4852 445.9252 L 572.5719 446.1457 L 575.0038 445.3571 L 579.6348 446.3892 L 580.6869 446.105 L 581.8726 447.7225 L 582.8991 447.8036 L 585.2359 450.0245 L 586.0035 450.0533 L 589.5738 448.8995 L 590.7295 449.2068 L 592.174 447.9834 L 593.4934 449.0908 L 593.571 447.7225 L 595.714 445.4036 L 597.3311 446.1979 L 598.8187 445.3456 L 600.4745 443.705 L 601.4404 443.7226 L 602.2077 441.7228 L 603.7213 441.172 L 605.472 441.601 L 606.3129 441.1605 L 608.0247 441.4328 L 608.6025 443.1545 L 611.1119 441.9545 L 611.1681 443.1023 L 612.6557 442.2733 L 613.5007 442.9574 L 615.3894 442.4531 L 616.4329 441.5488 L 618.231 442.5575 L 619.6842 441.2938 L 624.3798 442.5748 L 626.747 445.0848 L 627.7388 446.6558 L 627.8035 447.7456 L 626.9669 448.2733 L 625.4103 450.4302 L 626.8936 453.2426 L 629.7095 455.9742 L 630.4855 457.3546 L 630.6063 458.8453 L 629.968 461.3456 L 630.1276 462.8423 L 631.0548 463.9273 L 631.5419 466.5558 L 633.7668 468.6334 L 634.1809 470.1423 L 635.6685 472.6843 L 638.3418 473.8628 L 640.9291 475.6681 L 642.4944 477.2296 L 642.9298 479.0993 L 646.0646 479.976 L 649.6261 479.3896 L 651.8383 480.8062 L 651.92 483.6747 L 653.0584 484.2499 L 654.7746 482.409 L 658.7029 482.6006 L 660.8891 483.1232 L 663.4935 483.0419 L 663.6744 483.4193 L 659.1643 490.1217 L 658.483 490.6447 L 656.564 495.2345 L 655.5551 496.9312 L 654.2228 501.7428 L 652.7222 504.7016 L 651.338 506.422 L 649.8547 506.9802 L 647.8927 508.8114 L 646.6596 512.2826 L 645.9223 512.87 L 645.7411 517.2839 L 645.1977 518.2497 L 644.1372 523.0487 L 640.3038 528.2445 L 638.6953 531.6138 L 637.1087 533.8081 L 633.8401 536.7013 L 632.4734 538.7854 L 629.981 541.0735 L 628.6184 541.6208 L 628.058 543.3444 L 627.8854 546.0347 L 628.2476 549.57 L 628.7003 551.3699 L 628.5194 553.3973 L 627.9241 554.4752 L 627.6999 556.6192 L 628.045 559.7132 L 627.1697 564.4223 L 628.2132 569.1906 L 626.04 574.8638 L 625.2121 576.4326 L 623.8711 577.6281 L 622.6594 577.9021 L 617.4204 583.4901 L 618.0154 586.4829 L 619.5203 588.21 L 620.775 590.2466 L 618.8906 594.3843 L 620.5981 595.4523 L 620.7277 597.7812 L 619.3477 600.6478 L 617.7825 601.1614 L 616.2389 599.5093 L 614.1734 600.1572 L 612.1554 599.0482 L 610.0341 600.4901 L 608.154 600.5369 L 606.6018 602.6735 L 604.3896 600.6068 L 602.6994 599.988 L 601.0866 599.988 L 597.8658 598.1023 L 596.2143 598.1318 L 594.0841 599.5093 L 591.5747 602.7261 L 589.8369 603.5204 L 588.5219 605.3478 L 586.8185 605.9788 L 584.6669 607.859 L 583.2309 607.9991 L 581.7606 606.51 L 578.5656 606.5568 L 575.9006 605.3478 L 574.2491 604.2036 L 571.8 603.1407 L 569.062 602.6271 L 567.4968 601.1441 L 565.4875 597.6822 L 561.4126 594.9038 L 559.6102 594.5359 L 557.1697 593.2811 L 554.4444 591.4136 L 552.2066 591.3262 L 550.7536 590.369 L 547.1961 591.3495 L 545.6265 593.7541 L 543.5655 593.8822 L 541.5692 592.8376 L 538.5637 590.6376 L 537.0718 590.1588 L 532.3846 590.76 L 530.772 588.1401 L 529.3837 587.183 L 526.7101 587.4339 L 520.8503 584.3011 L 516.0037 584.3418 L 512.5715 585.777 L 506.2974 589.7038 L 502.7661 591.04 L 502.3606 591.7171 L 500.6618 590.7776 L 500.0624 589.3946 L 497.7599 586.1153 L 497.0959 583.7176 L 498.0661 582.6384 L 499.9029 583.6125 L 501.5198 583.2917 L 501.8045 582.3993 L 500.7394 580.9176 L 498.6525 580.13 L 497.1949 578.9694 L 496.5912 577.7797 L 493.2496 576.2166 L 491.9948 574.7356 L 491.1453 572.1699 L 489.8086 570.7181 L 486.9714 569.9369 L 486.2857 568.9749 L 486.0399 566.4333 L 485.3502 565.7338 L 482.7975 565.5765 L 482.6033 563.9384 L 482.8232 560.7854 L 481.7324 557.8544 L 481.5081 555.4772 L 483.5651 551.8419 L 485.212 549.5585 L 485.5484 547.2636 L 484.4747 544.8642 L 485.1863 542.6222 L 487.5104 541.2539 L 490.3907 540.2584 L 491.7879 537.9936 L 491.4904 536.253 L 490.421 533.3252 L 491.5721 531.7885 L 493.9782 532.3531 L 495.2848 531.4917 L 495.8023 529.2337 L 495.5737 527.139 L 494.5389 524.7707 L 495.3149 521.4604 L 495.2245 519.5932 L 496.4879 515.6731 L 498.372 511.5732 L 501.8735 510.271 L 502.421 509.1024 L 501.4724 506.4454 L 501.6147 505.1489 L 502.5805 503.2949 L 502.6798 501.7255 L 501.4251 499.3716 L 501.606 497.0414 L 501.1146 495.2111 L 498.9543 494.1886 L 497.8806 492.3933 L 497.3848 486.1372 L 496.4749 482.5135 L 496.298 477.8974 L 496.4233 472.1562 L 495.6686 470.5832 L 496.268 468.3838 L 495.052 465.9989 L 494.2757 461.5894 L 492.8917 460.6727 L 491.098 460.8409 L 488.5753 456.4497 L 487.3725 452.57 L 485.2596 449.143 L 484.0349 445.9252 L 483.3882 445.1078 Z" fill="#FFF" fill-opacity="1" stroke="#666" stroke-width="1" paint-order="fill" stroke-opacity="1" stroke-dasharray="" stroke-linecap="butt" stroke-linejoin="miter" stroke-miterlimit="10" transform="matrix(1,0,0,1,0,0)" clip-path="none"></path><path d="M 606.5112 113.1955 L 606.274 114.9137 L 605.4461 116.198 L 602.225 116.1124 L 599.9398 115.1591 L 598.5599 117.7793 L 597.3958 118.4246 L 597.0379 120.6683 L 596.1754 122.4441 L 594.6015 123.5806 L 592.4112 124.0946 L 592.6311 125.8765 L 592.299 127.2358 L 590.6216 127.4643 L 589.8843 126.5731 L 587.3964 127.6927 L 588.1078 128.8181 L 589.3798 129.2635 L 589.6687 130.3488 L 588.8754 132.2056 L 588.2847 132.4453 L 588.6425 134.1936 L 588.2501 137.9878 L 586.4347 138.9135 L 586.0208 140.6909 L 586.0208 143.6059 L 583.3819 144.1833 L 581.0363 146.1498 L 579.6434 146.6644 L 578.6475 148.2652 L 575.7757 149.9062 L 576.0042 150.8726 L 574.2837 151.8444 L 574.1155 153.3312 L 572.8521 152.3648 L 570.8212 154.2922 L 571.0454 156.4426 L 570.1658 157.6666 L 566.2678 160.0804 L 564.8622 160.4009 L 565.2373 161.7566 L 566.1212 161.5909 L 567.1993 162.4603 L 567.1346 163.6734 L 568.5703 167.1581 L 567.9796 169.6132 L 566.8025 170.0823 L 565.4012 169.2812 L 563.7584 169.4014 L 562.3484 168.9435 L 561.3782 169.5216 L 563.159 171.124 L 563.8403 172.4577 L 565.0304 173.0931 L 566.4447 174.942 L 564.9398 175.4287 L 560.8908 174.7132 L 559.8517 175.503 L 558.9548 175.2627 L 557.4112 176.6194 L 555.5528 176.9914 L 553.2717 177.9306 L 546.6573 177.7701 L 540.9309 178.7836 L 539.5123 177.9707 L 536.731 175.8866 L 535.3254 174.3408 L 534.1396 172.1029 L 532.2769 172.6925 L 531.0652 173.757 L 529.0861 173.7858 L 527.0852 174.9535 L 525.7788 176.1727 L 525.7012 177.7643 L 524.9769 178.9037 L 525.451 181.1314 L 523.8341 182.7918 L 521.7212 182.6028 L 518.7287 182.9178 L 514.3652 181.1769 L 513.7699 179.4363 L 512.2823 178.6118 L 510.976 178.7836 L 509.6996 177.9191 L 506.9657 177.7874 L 505.6033 176.3102 L 503.8785 176.4877 L 504.3657 178.921 L 502.6538 182.2823 L 502.6971 183.4449 L 501.8778 182.2365 L 499.726 182.2936 L 498.9413 185.0198 L 497.9195 186.1422 L 495.5953 186.7552 L 493.6677 185.7641 L 492.3743 186.2111 L 492.7752 187.282 L 491.2229 187.1961 L 488.9894 190.0717 L 487.3982 190.0431 L 482.9914 191.0801 L 480.2018 190.6846 L 479.309 191.2633 L 476.4157 190.5071 L 474.7686 187.9523 L 473.7208 187.0587 L 470.7456 187.7633 L 470.448 186.8353 L 468.9131 187.4768 L 467.3606 186.3028 L 467.1883 185.369 L 466.2008 185.9189 L 465.5065 184.4299 L 463.9843 184.865 L 462.9582 184.4526 L 461.0868 186.0048 L 459.1207 188.1699 L 456.1842 188.4506 L 453.3297 187.1676 L 452.4371 187.5169 L 450.0094 187.0817 L 447.5302 184.9797 L 446.2582 184.3667 L 444.5678 182.7518 L 443.2784 182.6887 L 441.6875 179.0755 L 440.0144 178.3427 L 438.9106 178.7836 L 439.4753 179.4937 L 438.156 181.4175 L 438.2422 182.4942 L 436.7287 184.6132 L 436.7027 185.9131 L 434.7367 185.9189 L 433.6802 186.7036 L 431.9424 186.3255 L 430.9982 185.22 L 428.8896 185.0598 L 423.9955 185.9074 L 422.6545 185.7013 L 421.2058 184.659 L 419.5973 184.2466 L 418.6918 184.5901 L 417.5017 183.8342 L 416.0358 185.0826 L 415.5787 186.7036 L 414.0264 187.6543 L 415.6866 192.0253 L 414.5696 193.6066 L 414.3067 196.1621 L 413.4787 196.7869 L 411.1459 196.6437 L 410.206 197.4803 L 408.9513 197.165 L 408.1967 198.4887 L 404.3547 199.6522 L 402.6126 199.6637 L 401.1036 201.5953 L 401.69 206.5023 L 401.3535 207.6203 L 399.8056 209.4205 L 398.0981 209.0936 L 395.7697 210.0056 L 394.1915 210.0799 L 390.5263 209.4778 L 388.3187 210.2004 L 386.9818 209.6441 L 385.7917 210.0799 L 385.4038 211.2783 L 383.1141 211.0777 L 382.0792 210.2808 L 380.3631 210.1088 L 378.7762 210.5388 L 376.5816 209.0536 L 372.8086 209.4093 L 372.0583 211.112 L 369.29 212.0009 L 367.9533 210.7278 L 366.4874 211.3472 L 363.6026 209.994 L 361.7098 210.5215 L 359.1828 212.494 L 356.4361 212.8266 L 355.7332 212.4482 L 353.8577 213.1708 L 353.5859 214.771 L 354.5001 216.6292 L 350.8133 220.599 L 349.9854 220.375 L 348.5625 222.1021 L 345.9108 222.9109 L 343.9014 222.7792 L 343.4443 222.0159 L 340.6847 221.6545 L 337.7482 222.2396 L 336.0148 220.5012 L 335.6915 221.5686 L 334.234 223.0144 L 333.6046 222.8824 L 332.5438 224.3166 L 331.7029 224.5691 L 329.3098 223.2553 L 328.5165 222.1938 L 327.9342 220.0193 L 326.9296 218.3101 L 325.9119 218.2698 L 326.7701 216.2738 L 330.6551 211.8461 L 331.9055 211.4046 L 330.7457 210.3151 L 331.7373 206.6113 L 331.4227 204.2664 L 331.8236 204.06 L 331.7289 201.2056 L 330.6421 200.2024 L 328.9433 199.6294 L 328.7321 198.913 L 329.9565 197.8873 L 330.5861 193.6124 L 331.496 192.7187 L 332.8757 192.3291 L 332.4316 190.6561 L 332.6342 188.6397 L 334.5531 185.8846 L 333.3501 183.674 L 334.1134 182.1333 L 333.1819 180.8218 L 332.1384 180.7475 L 331.4744 179.3161 L 330.198 179.2014 L 328.995 178.0107 L 329.2795 175.8581 L 326.27 175.4056 L 326.0931 176.7053 L 324.5408 177.2663 L 323.8682 178.9611 L 321.5914 179.4248 L 318.8577 178.6234 L 317.3011 180.7074 L 316.6845 180.3066 L 314.7828 180.9881 L 313.9809 181.8815 L 312.6959 181.0798 L 310.6046 181.721 L 309.1903 180.6446 L 308.4917 179.0069 L 307.3492 177.8559 L 307.112 175.9097 L 306.409 174.7644 L 306.2495 173.1504 L 306.8575 171.9424 L 306.2367 170.0596 L 307.3405 168.1078 L 306.6979 165.7162 L 305.2492 164.2111 L 305.1543 162.0085 L 306.448 159.1595 L 309.9535 157.8438 L 312.7175 153.7372 L 313.8386 153.2114 L 313.041 149.2714 L 314.0844 147.7164 L 314.0068 145.9441 L 312.9633 145.2465 L 313.0366 143.5488 L 317.1329 140.3253 L 317.9909 138.3307 L 317.094 136.2049 L 315.1236 135.4221 L 313.873 132.337 L 312.338 127.6241 L 312.5666 125.2882 L 311.9499 123.9347 L 310.1345 123.3064 L 310.7988 121.4392 L 309.9922 118.6813 L 310.7468 116.3293 L 310.445 113.3609 L 310.6349 112.0026 L 310.1218 109.5542 L 310.3027 108.0533 L 312.9717 106.2159 L 312.5752 104.6013 L 312.7475 102.8213 L 310.6219 102.9924 L 309.2292 102.6672 L 306.0901 102.7072 L 305.1457 101.9142 L 305.094 98.3033 L 304.7748 96.2387 L 302.9551 91.2545 L 302.5283 89.3729 L 300.2904 86.0609 L 299.0314 85.0176 L 297.1513 85.9754 L 295.3922 86.1577 L 293.4302 85.8498 L 290.2608 84.5616 L 289.0407 82.7948 L 289.0967 80.9594 L 290.3817 78.3722 L 291.8736 76.6057 L 291.6364 76.002 L 289.5062 74.794 L 289.3726 74.1102 L 290.8215 72.0309 L 288.6223 69.8892 L 286.0223 68.784 L 285.3539 67.867 L 283.5385 66.9217 L 282.3831 67.121 L 279.882 64.5809 L 279.4076 63.3284 L 279.6968 61.8932 L 280.8825 61.8365 L 282.2492 60.988 L 285.2246 61.5346 L 287.8074 63.4079 L 290.3084 60.2705 L 291.5329 57.9365 L 291.5458 56.1261 L 293.1154 55.5628 L 291.4596 54.2593 L 292.8825 53.8209 L 292.9128 53.0186 L 290.5497 50.3209 L 292.8695 51.3793 L 292.2401 49.7121 L 293.6974 49.251 L 294.7022 50.6567 L 295.3059 49.655 L 299.1693 51.8573 L 302.1231 53.9007 L 303.9642 53.6162 L 306.2021 53.9917 L 306.4694 55.375 L 307.5215 55.9838 L 307.5561 53.952 L 308.5392 52.7395 L 310.5356 52.1931 L 310.6822 49.1715 L 311.9499 47.6578 L 313.6446 46.4741 L 314.8001 46.4059 L 318.2194 43.2826 L 319.3235 43.3166 L 319.7286 41.8718 L 322.9453 39.4599 L 325.6963 39.8467 L 325.8602 38.3452 L 324.5795 36.1899 L 324.7994 35.3994 L 327.7705 34.0687 L 328.7061 32.613 L 330.3879 32.0958 L 330.0428 32.9257 L 331.5693 33.0055 L 332.41 31.999 L 333.4191 32.4255 L 332.4059 33.847 L 333.445 33.8072 L 334.9153 35.3424 L 336.972 35.3825 L 338.2183 36.0419 L 339.5893 35.1037 L 340.9219 35.0809 L 342.3319 34.2052 L 344.9579 34.4212 L 345.8718 33.1247 L 347.7648 33.5115 L 349.3387 33.3237 L 351.0979 32.1868 L 352.4692 33.102 L 354.2932 33.1875 L 354.4355 35.4904 L 352.7494 38.2429 L 352.1889 40.3587 L 352.9822 41.303 L 355.0778 41.7183 L 359.5752 41.9173 L 360.817 40.848 L 362.6367 40.5805 L 365.4956 41.5305 L 365.0168 44.7105 L 367.8541 44.9835 L 369.1218 45.7288 L 368.2249 48.6707 L 376.6506 50.5484 L 383.4935 53.8267 L 386.0075 51.22 L 386.2488 47.817 L 387.2493 44.4147 L 391.5698 44.7105 L 391.6001 46.2979 L 392.9668 46.5312 L 394.3381 47.652 L 395.1833 49.1542 L 398.0679 48.4829 L 400.0298 51.4475 L 401.3752 51.8859 L 402.4533 53.9119 L 403.5957 57.9365 L 403.7596 59.895 L 411.0943 62.7019 L 414.6515 63.6414 L 417.532 64.0003 L 418.5195 63.1573 L 420.0114 57.1566 L 421.3567 58.1073 L 424.0818 58.91 L 424.263 60.299 L 427.9411 62.6449 L 428.6438 64.3989 L 434.4865 65.1276 L 438.738 68.562 L 442.0324 71.5013 L 444.5461 72.84 L 446.81 74.5261 L 449.7765 76.1215 L 452.8036 79.0217 L 454.4724 78.435 L 455.4986 77.1927 L 457.7581 76.8223 L 458.1202 75.7511 L 457.8487 73.512 L 456.2316 71.2164 L 458.2495 68.9548 L 460.7849 65.6288 L 463.2514 64.9911 L 462.5657 62.9525 L 468.1109 61.1475 L 468.9605 60.4698 L 473.2939 58.8244 L 474.6823 63.6584 L 476.502 63.4024 L 477.8903 62.0585 L 479.5981 59.7469 L 478.7829 59.0865 L 480.8139 55.6083 L 489.9466 55.9896 L 490.8564 55.8871 L 493.2106 54.5041 L 495.2762 53.6729 L 497.6953 53.8097 L 499.6787 53.2349 L 501.3215 51.1973 L 502.5462 50.5372 L 505.1419 51.7551 L 508.6475 51.9769 L 510.6698 49.3365 L 512.5412 48.8242 L 514.5765 48.9494 L 515.6243 51.5843 L 517.8708 51.6241 L 519.5997 51.0095 L 521.2125 49.7348 L 524.2266 49.9226 L 525.6452 51.3168 L 525.602 54.6749 L 526.3306 53.7184 L 527.4517 53.7527 L 527.4173 54.7886 L 530.6384 54.9421 L 530.9013 53.0186 L 533.1565 53.2349 L 534.5708 56.2629 L 534.118 57.1338 L 535.3643 57.652 L 541.5949 58.4489 L 543.4449 58.9497 L 545.3766 57.817 L 548.1146 57.7715 L 550.9002 59.6899 L 552.1549 59.2628 L 552.2628 58.1871 L 554.009 58.1413 L 554.0996 59.0523 L 557.2214 59.2288 L 557.1697 57.5267 L 560.9512 57.1111 L 560.7875 59.6841 L 562.7322 59.149 L 564.2198 61.5061 L 567.8763 60.9768 L 566.8845 58.6367 L 564.4913 58.6309 L 564.6552 57.5664 L 568.1522 56.4792 L 571.0283 56.3027 L 571.8776 57.4697 L 571.5155 60.0542 L 572.9901 63.727 L 577.4272 62.3261 L 578.9407 62.2178 L 579.1563 63.0435 L 580.5576 63.835 L 580.1438 65.1276 L 581.571 67.3318 L 582.7525 67.8442 L 583.4294 69.1317 L 584.4513 69.6101 L 585.6154 71.2391 L 588.7461 72.6176 L 593.2132 72.0937 L 594.9637 72.4981 L 597.3441 75.1131 L 597.4734 77.5631 L 596.8783 80.2926 L 596.0115 80.2586 L 594.3773 84.4819 L 594.6491 86.209 L 596.7144 85.1317 L 598.0208 85.8328 L 599.1722 85.7642 L 600.3839 84.1169 L 600.9316 84.214 L 602.6908 87.0357 L 604.1827 90.023 L 603.8032 92.201 L 602.6648 94.8756 L 604.5405 98.2062 L 603.6223 99.8891 L 604.1224 101.8969 L 605.403 103.7624 L 605.8729 105.3088 L 604.933 106.3758 L 605.4331 109.731 L 606.6837 112.6873 L 606.5112 113.1955 Z" fill="#FFF" fill-opacity="1" stroke="#666" stroke-width="1" paint-order="fill" stroke-opacity="1" stroke-dasharray="" stroke-linecap="butt" stroke-linejoin="miter" stroke-miterlimit="10" transform="matrix(1,0,0,1,0,0)" clip-path="none"></path></g></svg>